<svg width="17" height="17" viewBox="0 0 17 17" fill="none" xmlns="http://www.w3.org/2000/svg">
<path d="M4.5 5.5H12.5V11H4.5V5.5Z" fill="#F7E3D6"/>
<path d="M5.5 2H11H11.5" stroke="black"/>
<path d="M12 2.5V3.5" stroke="black"/>
<path d="M13 3.5V4.5" stroke="black"/>
<path d="M14 4.5V6.5V7" stroke="black"/>
<path d="M15 7V10" stroke="black"/>
<path d="M14 10V11" stroke="black"/>
<path d="M3 10V11" stroke="black"/>
<path d="M3.5 11.5H7" stroke="black"/>
<path d="M13.5 11.5H10.5" stroke="black"/>
<path d="M4.5 5H12.5" stroke="black"/>
<path d="M5 3.5V2.5" stroke="black"/>
<path d="M4 4.5V3.5" stroke="black"/>
<path d="M2 7V10" stroke="black"/>
<path d="M3 7V4.5" stroke="black"/>
<path d="M4 8V10" stroke="black"/>
<path d="M13 8V10" stroke="black"/>
<path d="M4.5 12H7V15H2.5V14H3.5V13H4.5V12Z" fill="black"/>
<path d="M10.5 12H12.5V13H13.5V14H14.5V15H10.5V12Z" fill="black"/>
<path d="M6.5 6.5V8.5" stroke="black"/>
<path d="M11 6.5V8.5" stroke="black"/>
<path d="M5.5 2.5H11.5V3.5H12.5V4.5H11.5H5.5H4.5V11H3.5V10H4.5V8H3.5V10H2.5V7H3.5V4.5H4.5V3.5H5.5V2.5Z" fill="#D9D9D9"/>
<path d="M7 11H10.5V12H7V11Z" fill="#E5BFAD"/>
<path d="M12.5 4.5H13.5V7H14.5V10H13.5V8H12.5V4.5Z" fill="#D9D9D9"/>
<rect x="12.5" y="10" width="1" height="1" fill="#D9D9D9"/>
<path d="M8 13H9.5V15H8V13Z" fill="black"/>
</svg>
